<svg xmlns="http://www.w3.org/2000/svg" shape-rendering="geometricPrecision" text-rendering="geometricPrecision" image-rendering="optimizeQuality" fill-rule="evenodd" clip-rule="evenodd" viewBox="0 0 512 452.265"><path fill-rule="nonzero" d="M110.985 30.441c58.695 44.217 121.837 133.856 145.013 181.961 23.177-48.105 86.323-137.744 145.017-181.961C443.376-1.455 512-26.142 512 52.402c0 15.68-8.962 131.775-14.223 150.628-18.273 65.515-84.873 82.228-144.112 72.116 103.55 17.679 129.889 76.237 73 134.799-108.041 111.223-155.288-27.905-167.386-63.554-3.488-10.262-2.991-10.498-6.56 0-12.098 35.649-59.342 174.777-167.383 63.554-56.889-58.562-30.551-117.12 72.999-134.799-59.239 10.112-125.84-6.601-144.112-72.116C8.962 184.177 0 68.082 0 52.402 0-26.142 68.633-1.455 110.985 30.441z"/></svg>